<?xml version="1.0" standalone="no"?>
<svg xmlns:xlink="http://www.w3.org/1999/xlink" id="wave" style="transform:rotate(0deg); transition: 0.3s" viewBox="0 0 1440 210" version="1.1" xmlns="http://www.w3.org/2000/svg"><defs><linearGradient id="sw-gradient-0" x1="0" x2="0" y1="1" y2="0"><stop stop-color="rgba(243, 62, 62, 0)" offset="0%"/><stop stop-color="rgba(255, 11, 11, 0)" offset="100%"/></linearGradient></defs><path style="transform:translate(0, 0px); opacity:1" fill="url(#sw-gradient-0)" d="M0,189L20,189C40,189,80,189,120,164.5C160,140,200,91,240,63C280,35,320,28,360,24.5C400,21,440,21,480,21C520,21,560,21,600,42C640,63,680,105,720,129.5C760,154,800,161,840,147C880,133,920,98,960,98C1000,98,1040,133,1080,147C1120,161,1160,154,1200,150.5C1240,147,1280,147,1320,143.5C1360,140,1400,133,1440,133C1480,133,1520,140,1560,147C1600,154,1640,161,1680,164.5C1720,168,1760,168,1800,161C1840,154,1880,140,1920,112C1960,84,2000,42,2040,21C2080,0,2120,0,2160,14C2200,28,2240,56,2280,87.5C2320,119,2360,154,2400,143.5C2440,133,2480,77,2520,56C2560,35,2600,49,2640,45.5C2680,42,2720,21,2760,10.5C2800,0,2840,0,2860,0L2880,0L2880,210L2860,210C2840,210,2800,210,2760,210C2720,210,2680,210,2640,210C2600,210,2560,210,2520,210C2480,210,2440,210,2400,210C2360,210,2320,210,2280,210C2240,210,2200,210,2160,210C2120,210,2080,210,2040,210C2000,210,1960,210,1920,210C1880,210,1840,210,1800,210C1760,210,1720,210,1680,210C1640,210,1600,210,1560,210C1520,210,1480,210,1440,210C1400,210,1360,210,1320,210C1280,210,1240,210,1200,210C1160,210,1120,210,1080,210C1040,210,1000,210,960,210C920,210,880,210,840,210C800,210,760,210,720,210C680,210,640,210,600,210C560,210,520,210,480,210C440,210,400,210,360,210C320,210,280,210,240,210C200,210,160,210,120,210C80,210,40,210,20,210L0,210Z"/><defs><linearGradient id="sw-gradient-1" x1="0" x2="0" y1="1" y2="0"><stop stop-color="rgba(243, 106, 62, 0)" offset="0%"/><stop stop-color="rgba(255, 11, 11, 0)" offset="100%"/></linearGradient></defs><path style="transform:translate(0, 50px); opacity:0.9" fill="url(#sw-gradient-1)" d="M0,0L20,10.5C40,21,80,42,120,70C160,98,200,133,240,122.5C280,112,320,56,360,49C400,42,440,84,480,98C520,112,560,98,600,84C640,70,680,56,720,42C760,28,800,14,840,31.5C880,49,920,98,960,101.5C1000,105,1040,63,1080,63C1120,63,1160,105,1200,119C1240,133,1280,119,1320,108.5C1360,98,1400,91,1440,87.5C1480,84,1520,84,1560,91C1600,98,1640,112,1680,98C1720,84,1760,42,1800,28C1840,14,1880,28,1920,56C1960,84,2000,126,2040,140C2080,154,2120,140,2160,136.5C2200,133,2240,140,2280,129.5C2320,119,2360,91,2400,77C2440,63,2480,63,2520,59.5C2560,56,2600,49,2640,49C2680,49,2720,56,2760,73.5C2800,91,2840,119,2860,133L2880,147L2880,210L2860,210C2840,210,2800,210,2760,210C2720,210,2680,210,2640,210C2600,210,2560,210,2520,210C2480,210,2440,210,2400,210C2360,210,2320,210,2280,210C2240,210,2200,210,2160,210C2120,210,2080,210,2040,210C2000,210,1960,210,1920,210C1880,210,1840,210,1800,210C1760,210,1720,210,1680,210C1640,210,1600,210,1560,210C1520,210,1480,210,1440,210C1400,210,1360,210,1320,210C1280,210,1240,210,1200,210C1160,210,1120,210,1080,210C1040,210,1000,210,960,210C920,210,880,210,840,210C800,210,760,210,720,210C680,210,640,210,600,210C560,210,520,210,480,210C440,210,400,210,360,210C320,210,280,210,240,210C200,210,160,210,120,210C80,210,40,210,20,210L0,210Z"/><defs><linearGradient id="sw-gradient-2" x1="0" x2="0" y1="1" y2="0"><stop stop-color="rgba(243, 62, 62, 0)" offset="0%"/><stop stop-color="rgba(255, 11, 11, 0)" offset="100%"/></linearGradient></defs><path style="transform:translate(0, 100px); opacity:0.8" fill="url(#sw-gradient-2)" d="M0,189L20,185.5C40,182,80,175,120,168C160,161,200,154,240,129.5C280,105,320,63,360,52.5C400,42,440,63,480,91C520,119,560,154,600,150.5C640,147,680,105,720,98C760,91,800,119,840,133C880,147,920,147,960,129.5C1000,112,1040,77,1080,84C1120,91,1160,140,1200,154C1240,168,1280,147,1320,136.5C1360,126,1400,126,1440,133C1480,140,1520,154,1560,157.5C1600,161,1640,154,1680,133C1720,112,1760,77,1800,56C1840,35,1880,28,1920,31.5C1960,35,2000,49,2040,70C2080,91,2120,119,2160,115.5C2200,112,2240,77,2280,80.5C2320,84,2360,126,2400,126C2440,126,2480,84,2520,73.5C2560,63,2600,84,2640,98C2680,112,2720,119,2760,101.5C2800,84,2840,42,2860,21L2880,0L2880,210L2860,210C2840,210,2800,210,2760,210C2720,210,2680,210,2640,210C2600,210,2560,210,2520,210C2480,210,2440,210,2400,210C2360,210,2320,210,2280,210C2240,210,2200,210,2160,210C2120,210,2080,210,2040,210C2000,210,1960,210,1920,210C1880,210,1840,210,1800,210C1760,210,1720,210,1680,210C1640,210,1600,210,1560,210C1520,210,1480,210,1440,210C1400,210,1360,210,1320,210C1280,210,1240,210,1200,210C1160,210,1120,210,1080,210C1040,210,1000,210,960,210C920,210,880,210,840,210C800,210,760,210,720,210C680,210,640,210,600,210C560,210,520,210,480,210C440,210,400,210,360,210C320,210,280,210,240,210C200,210,160,210,120,210C80,210,40,210,20,210L0,210Z"/></svg>